<svg version="1.0" xmlns="http://www.w3.org/2000/svg"
 width="500.000000pt" height="124.000000pt" viewBox="0 0 500.000000 124.000000"
 preserveAspectRatio="xMidYMid meet">

<g transform="translate(0.000000,124.000000) scale(0.100000,-0.100000)"
fill="#000000" stroke="none">
<path d="M369 1171 c-21 -16 -22 -22 -11 -45 15 -33 56 -36 72 -5 14 25 8 44
-19 58 -15 8 -24 7 -42 -8z"/>
<path d="M570 1070 c-43 -43 -14 -110 47 -110 38 0 63 27 63 68 0 56 -70 82
-110 42z"/>
<path d="M250 893 c-101 -91 14 -255 130 -187 55 33 74 97 45 154 -34 66 -120
82 -175 33z"/>
<path d="M1042 850 c-63 -9 -165 -57 -310 -144 -192 -116 -298 -153 -412 -143
-36 4 -75 9 -88 13 l-23 7 20 -53 c33 -86 82 -158 157 -230 227 -216 576 -216
808 1 112 105 181 243 188 378 l3 54 -50 39 c-86 66 -187 92 -293 78z"/>
<path d="M1664 851 c-2 -2 -4 -100 -4 -218 l0 -213 40 0 40 0 0 219 0 220 -36
-2 c-19 -1 -37 -4 -40 -6z"/>
<path d="M3140 830 c0 -28 2 -30 40 -30 38 0 40 2 40 30 0 28 -2 30 -40 30
-38 0 -40 -2 -40 -30z"/>
<path d="M3661 851 c-31 -6 -37 -14 -90 -119 l-57 -114 -55 116 -54 115 -42 1
-43 0 0 -215 0 -215 40 0 40 0 0 128 1 127 45 -82 c40 -72 49 -83 73 -83 23 0
32 10 68 83 l42 82 0 -127 1 -128 40 0 40 0 0 220 c0 121 -3 219 -7 219 -5 -1
-23 -4 -42 -8z"/>
<path d="M2742 660 c3 -178 4 -191 24 -211 14 -13 40 -23 69 -26 l46 -6 -3 34
c-2 26 -8 34 -28 39 l-25 6 -3 177 -2 177 -41 0 -40 0 3 -190z"/>
<path d="M2942 660 c3 -178 4 -191 24 -211 14 -13 40 -23 69 -26 l46 -6 -3 34
c-2 29 -7 34 -30 37 l-28 3 0 180 0 179 -41 0 -40 0 3 -190z"/>
<path d="M2200 775 c0 -33 -4 -45 -15 -45 -10 0 -15 -10 -15 -30 0 -19 5 -30
14 -30 11 0 15 -22 18 -100 4 -118 17 -139 93 -147 l46 -6 -3 34 c-2 26 -8 34
-28 39 -24 6 -25 9 -28 93 l-3 87 31 0 c27 0 30 3 30 30 0 27 -3 30 -30 30
-29 0 -30 2 -30 45 l0 45 -40 0 -40 0 0 -45z"/>
<path d="M1840 580 l0 -160 40 0 40 0 0 109 c0 119 9 141 55 141 46 0 55 -22
55 -141 l0 -109 40 0 40 0 0 103 c0 121 -11 169 -47 197 -31 24 -89 26 -121 4
-20 -14 -22 -14 -22 0 0 12 -10 16 -40 16 l-40 0 0 -160z"/>
<path d="M2475 730 c-76 -31 -107 -167 -57 -252 34 -59 149 -76 215 -33 l28
18 -22 23 c-20 22 -24 22 -50 9 -15 -8 -37 -15 -47 -15 -27 0 -72 38 -72 61 0
17 8 19 100 19 l100 0 0 33 c-1 53 -33 111 -73 130 -37 18 -89 21 -122 7z m93
-66 c12 -8 22 -24 22 -35 0 -17 -7 -19 -60 -19 -66 0 -77 13 -40 50 24 24 48
25 78 4z"/>
<path d="M3147 733 c-4 -3 -7 -75 -7 -160 l0 -153 40 0 40 0 0 160 0 160 -33
0 c-19 0 -37 -3 -40 -7z"/>
<path d="M3844 731 c-33 -15 -38 -31 -16 -53 17 -18 24 -19 53 -8 47 16 89 0
89 -35 0 -23 -4 -25 -45 -25 -55 0 -110 -21 -124 -48 -35 -65 14 -142 89 -142
23 0 50 5 61 10 13 7 19 7 19 0 0 -5 18 -10 41 -10 l41 0 -4 130 c-3 126 -4
130 -30 157 -23 23 -37 27 -90 30 -35 1 -73 -1 -84 -6z m126 -201 c0 -43 -67
-69 -98 -38 -30 30 2 68 59 68 37 0 39 -2 39 -30z"/>
<path d="M4159 711 c-28 -28 -29 -34 -29 -116 0 -121 21 -154 98 -155 24 0 52
5 63 10 17 9 19 7 19 -18 0 -50 -56 -82 -102 -58 -24 13 -28 12 -47 -8 -28
-30 -27 -35 14 -52 47 -19 99 -18 144 6 60 30 71 69 71 260 l0 160 -40 0 c-30
0 -40 -4 -40 -16 0 -14 -2 -14 -22 0 -38 27 -95 20 -129 -13z m130 -50 c8 -5
16 -32 19 -64 4 -46 1 -58 -17 -76 -41 -41 -80 -17 -88 52 -9 75 36 120 86 88z"/>
<path d="M4545 730 c-76 -31 -106 -161 -58 -253 29 -57 151 -75 216 -32 l28
18 -24 25 c-24 23 -26 24 -48 8 -13 -9 -33 -16 -45 -16 -29 0 -74 37 -74 61 0
17 8 19 101 19 l102 0 -7 46 c-8 60 -32 100 -72 119 -35 16 -87 19 -119 5z
m95 -70 c37 -37 26 -50 -40 -50 -47 0 -60 3 -60 15 0 22 37 55 60 55 11 0 29
-9 40 -20z"/>
</g>
</svg>
